<svg width="472" height="55" viewBox="0 0 472 55" fill="none" xmlns="http://www.w3.org/2000/svg">
<path d="M28.2835 31.3266C30.0425 34.7606 31.8016 38.2039 33.6636 41.4413H33.8601C35.9093 38.0074 37.8648 34.1711 39.8204 30.3441L47.0532 16.206C50.5714 9.52521 52.7141 5.39886 52.9106 2.05847C55.5492 2.25496 57.1118 2.25496 58.6838 2.25496C60.63 2.25496 63.175 2.1614 65.5236 2.05847C66.0102 2.45146 66.0102 3.63042 65.6172 3.92984L63.961 4.0234C59.0674 4.51932 58.4873 5.89477 58.5808 11.0036C58.7773 18.854 58.7773 32.5056 59.4604 43.1162C59.6569 46.8402 59.6569 48.7116 63.2686 49.1046L65.7201 49.3011C66.2066 49.7876 66.1037 50.873 65.5236 51.1631C62.3891 50.9666 59.1703 50.9666 56.4288 50.9666C53.6966 50.9666 50.272 51.0695 47.0532 51.1631C46.4638 50.7701 46.4638 49.7876 46.8567 49.3011L49.1024 49.1046C52.9106 48.7116 52.9106 47.5326 52.9106 42.8168L52.7141 12.0796H52.527C51.9375 12.8656 49.0088 18.7604 47.5398 21.7078L40.7 34.667C37.1818 41.1513 33.7572 48.1221 32.3911 51.4625C32.1946 51.659 31.9045 51.7525 31.6051 51.7525C31.418 51.7525 31.025 51.659 30.9221 51.4625C29.6589 47.5326 25.9443 40.3653 24.0822 36.7255L17.1488 22.4844C15.4833 19.0505 13.9207 15.2235 12.1617 11.8831H11.9652C11.6751 16.496 11.385 20.7253 11.1885 25.0388C10.9921 29.5582 10.5991 36.136 10.5991 42.4238C10.5991 47.9256 11.0856 49.1046 14.1172 49.3011L17.0459 49.4975C17.6354 49.9841 17.5325 51.1631 16.9523 51.3596C14.3137 51.1631 11.2821 51.1631 8.35343 51.1631C5.9113 51.1631 3.07618 51.266 0.437563 51.3596C-0.0489917 50.9666 -0.151917 49.8905 0.241068 49.4975L2.09372 49.1981C5.32182 48.8051 6.39786 48.3186 6.88441 43.1162C7.37097 38.2039 7.76395 34.1711 8.15694 26.9102C8.64349 20.8189 8.93355 14.5311 9.03648 10.5077C9.23297 5.89477 8.54992 4.9123 3.8528 4.12633L2.6832 3.92984C2.29021 3.53685 2.39314 2.45146 2.97326 2.1614C5.32182 2.35789 7.17447 2.35789 9.03648 2.35789C10.7956 2.35789 12.9476 2.35789 15.4833 2.1614C15.1933 5.00587 17.1488 9.62814 19.488 14.3346L28.2835 31.3266Z" fill="white"/>
<path d="M78.6136 13.5487C78.6136 5.69832 78.4171 4.51936 73.9259 4.12637L71.9703 4.02345C71.4837 3.73338 71.6802 2.35793 72.1668 2.16144C75.975 2.255 78.6136 2.35793 81.9353 2.35793C85.0698 2.35793 87.6055 2.255 91.5167 2.16144C91.9097 2.35793 92.0032 3.63046 91.5167 3.92988L89.5611 4.02345C84.9669 4.41643 84.8733 5.69831 84.8733 13.4551V39.7759C84.8733 47.6262 85.0698 48.6087 89.5611 49.1046L91.5167 49.3011C92.0032 49.5912 91.8067 50.873 91.3202 51.1631C87.409 50.9666 84.8733 50.9666 81.7388 50.9666C78.5201 50.9666 75.8814 51.0695 71.9703 51.1631C71.4837 50.9666 71.3808 49.7876 71.7738 49.3011L73.7294 49.1046C78.3236 48.6087 78.4171 47.5327 78.4171 39.7759V13.5487H78.6136Z" fill="white"/>
<path d="M107.938 7.46674C113.599 3.23745 120.738 1.17896 128.748 1.17896C132.949 1.17896 138.816 1.96493 142.427 2.94739C143.307 3.14389 143.896 3.34038 144.579 3.23745C144.682 4.91232 145.066 9.62816 145.655 14.0446C145.262 14.5311 144.093 14.6341 143.606 14.1381C142.427 9.13225 139.012 3.34038 127.774 3.34038C115.947 3.34038 105.88 10.5077 105.88 25.7312C105.88 41.2448 116.144 49.7876 128.851 49.7876C138.816 49.7876 143.213 43.6028 144.972 39.2799C145.562 38.8869 146.638 39.0834 147.021 39.5793C146.441 43.4063 144.486 48.3186 143.307 49.6941C142.334 49.8905 141.454 50.1806 140.575 50.48C138.909 51.0695 133.342 52.1455 128.355 52.1455C121.421 52.1455 114.778 50.7701 109.108 47.2332C102.951 43.2098 98.1602 36.4354 98.1602 26.9102C98.1602 18.7604 102.071 11.7802 107.938 7.46674Z" fill="white"/>
<path d="M268.109 13.4551C268.109 5.69827 267.912 4.51932 263.121 4.12633L261.072 3.92984C260.586 3.63042 260.782 2.25496 261.269 2.05847C265.563 2.25496 268.202 2.25496 271.337 2.25496C274.359 2.25496 276.997 2.1614 280.815 2.05847C281.302 2.25496 281.395 3.63042 281.012 3.92984L279.15 4.0234C274.555 4.41639 274.462 5.59535 274.462 13.3522V39.0834C274.462 43.7057 274.658 45.6612 276.118 47.0367C276.997 47.8227 278.467 48.7116 284.53 48.7116C291.07 48.7116 292.736 48.4122 293.905 47.7291C295.468 46.8402 297.423 44.1922 298.986 40.4589C299.482 40.0659 300.942 40.3653 300.942 40.8518C300.942 41.6378 298.799 49.1981 297.723 51.1631C293.812 50.9666 286.485 50.9666 278.467 50.9666H271.337C268.109 50.9666 265.563 51.0695 261.269 51.1631C260.782 50.9666 260.679 49.7876 261.072 49.301L263.421 49.1046C267.912 48.7116 268.015 47.6262 268.015 39.8694V13.4551H268.109Z" fill="white"/>
<path d="M324.792 14.5311C325.671 12.2761 326.448 10.5077 326.644 10.2176H326.841C327.327 11.0972 328.011 13.0621 328.6 14.8306L332.801 26.8073C333.484 28.7722 333.391 29.0716 331.145 29.0716H321.667C319.515 29.0716 319.412 28.9687 320.001 27.3032L324.792 14.5311ZM338.668 43.9958C339.257 45.7642 339.641 47.1396 339.641 47.9256C339.641 48.7116 338.565 49.1046 336.909 49.3011L334.663 49.4976C334.074 49.8906 334.167 51.0695 334.86 51.3596C337.105 51.266 340.034 51.1631 343.749 51.1631C347.267 51.1631 349.905 51.266 353.134 51.3596C353.517 51.0695 353.714 49.8906 353.134 49.4976L351.075 49.3011C347.753 48.9081 346.78 47.8227 344.535 41.4413L333.98 11.7802C332.801 8.54277 331.529 5.10882 330.556 1.862C330.359 1.37545 329.873 1.17896 329.386 1.17896L326.448 1.46901C326.944 2.94739 325.185 6.57784 324.109 9.23517L316.193 29.1652C312.965 37.4179 310.813 42.2273 309.353 45.6613C308.277 48.3186 306.611 49.1046 304.759 49.3011L302.214 49.4976C301.727 49.8906 301.924 51.0695 302.41 51.3596C304.459 51.266 307.295 51.1631 309.84 51.1631C313.451 51.266 315.893 51.266 317.849 51.3596C318.532 51.0695 318.532 49.8906 318.046 49.4976L315.51 49.3011C313.648 49.1046 313.255 48.7116 313.255 47.8227C313.255 47.0367 313.844 44.9782 314.92 41.7408L317.653 33.9746C318.242 32.412 318.635 32.2155 320.591 32.2155H332.221C334.56 32.2155 334.86 32.412 335.346 34.0775L338.668 43.9958Z" fill="white"/>
<path d="M405.223 38.4939C405.223 40.7583 405.223 49.4975 405.41 51.4625C405.223 51.8555 404.83 52.2484 403.95 52.2484C403.071 50.9666 400.825 48.4122 394.079 41.1513L376.198 21.6049C374.139 19.3499 368.862 13.2586 367.206 11.6866H367.009C366.71 12.5662 366.616 14.241 366.616 16.496V32.6085C366.616 36.0424 366.813 45.6612 367.982 47.9256C368.469 48.7116 370.041 49.1981 371.894 49.3011L374.242 49.4975C374.729 50.087 374.626 50.9666 374.046 51.3596C370.528 51.1631 367.889 51.1631 365.054 51.1631C361.826 51.1631 359.674 51.266 357.035 51.3596C356.455 50.9666 356.455 49.9841 356.848 49.4975L358.897 49.3011C360.656 49.1981 361.929 48.6086 362.312 47.8227C363.388 45.1747 363.295 36.136 363.295 32.6085V11.1907C363.295 9.13223 363.192 7.56028 361.629 5.89477C360.553 4.80938 358.701 4.32282 356.848 4.12633L355.772 3.92984C355.276 3.43392 355.276 2.35789 355.968 2.05847C359.187 2.25496 363.295 2.25496 364.661 2.25496C365.933 2.25496 367.206 2.1614 368.179 2.05847C369.742 5.79184 378.93 15.5136 381.372 18.2645L388.895 26.3207C394.172 32.1126 397.99 36.136 401.602 39.6729H401.798C402.088 39.2799 402.088 38.1009 402.088 36.529V20.9218C402.088 17.4785 401.995 7.8597 400.525 5.59535C400.039 4.9123 398.869 4.51932 395.735 4.12633L394.472 3.92984C393.882 3.43392 393.976 2.25496 394.668 2.05847C398.186 2.25496 400.825 2.25496 403.754 2.25496C407.075 2.25496 409.124 2.1614 411.669 2.05847C412.259 2.45146 412.259 3.43392 411.866 3.92984L410.79 4.0234C408.348 4.41639 406.785 5.00587 406.486 5.59535C405.223 8.25268 405.316 17.3849 405.316 20.8189V38.4939H405.223Z" fill="white"/>
<path d="M430.533 11.0972C430.533 7.75677 430.73 5.89477 431.31 5.50178C431.899 5.00587 434.435 4.41639 438.936 4.41639C459.165 4.41639 463.263 18.1709 463.263 26.2178C463.263 39.9723 456.526 49.301 441.574 49.301C436.69 49.301 433.752 48.5151 432.096 46.2507C430.823 44.4823 430.533 42.1337 430.533 38.2039V11.0972ZM424.18 39.9723C424.18 47.7291 423.983 48.6086 419.586 49.1981L417.827 49.3946C417.34 49.7876 417.537 50.9666 418.023 51.266C421.635 51.0695 424.47 51.0695 427.698 51.0695C430.43 51.0695 435.314 51.659 440.302 51.659C446.262 51.659 452.615 50.6765 457.602 48.1221C466.398 43.5092 471.086 35.5465 471.086 26.1242C471.086 16.4025 465.808 7.95327 455.45 4.32282C450.463 2.55438 444.989 2.05847 438.449 2.05847C431.899 2.05847 425.64 2.25496 419.099 2.64795C418.313 2.94737 418.416 4.12633 418.996 4.51932L420.662 4.71581C423.88 5.20236 424.273 6.68074 424.273 11.8831V39.9723H424.18Z" fill="white"/>
<path d="M259.603 31.0366C259.603 30.7371 259.706 30.4471 259.706 30.1477C259.706 29.6611 259.799 29.1652 259.799 28.6786C259.799 28.0892 259.799 27.5933 259.799 27.0038C259.799 26.6108 259.799 26.3207 259.706 25.9277C259.706 25.2353 259.603 24.5523 259.509 23.8599C259.509 23.5698 259.406 23.2704 259.406 22.9803C259.313 22.2879 259.116 21.5113 259.023 20.8189C258.92 20.5289 258.92 20.2294 258.826 19.9394C258.63 19.3499 258.433 18.7604 258.237 18.1709C258.04 17.778 257.947 17.385 257.75 16.8891C257.647 16.599 257.554 16.4025 257.357 16.1031C253.156 6.68077 243.574 0 232.44 0C225.984 0 220.023 2.25499 215.336 6.09129C215.139 6.28778 214.849 6.48427 214.653 6.68077C214.166 7.07375 213.67 7.46674 213.286 7.95329C212.5 8.73927 211.724 9.62817 211.031 10.5077C210.938 10.7042 210.741 10.8071 210.648 11.0036C209.085 13.0621 207.906 15.3171 206.933 17.5815C206.933 17.675 206.83 17.778 206.83 17.8715C206.447 19.0505 206.054 20.1359 205.754 21.3148C205.754 21.4084 205.754 21.4084 205.661 21.5113C205.371 22.6809 205.174 23.8599 205.071 25.1418C205.071 25.3383 205.071 25.5348 205.071 25.8248C204.978 26.7137 204.978 27.6962 205.071 28.5757C205.071 28.9687 205.071 29.3617 205.174 29.6611C205.268 30.5407 205.371 31.5231 205.567 32.412C205.567 32.6085 205.661 32.805 205.661 33.0015C205.857 32.8986 232.243 6.28778 232.243 6.28778V9.62816L206.344 35.5466C206.634 36.4355 206.933 37.315 207.326 38.101L232.337 12.9592V16.4025L208.299 40.4589C208.692 41.1513 209.085 41.8343 209.572 42.5267L232.14 19.64V23.0739L210.741 44.3887C211.228 44.9782 211.621 45.5677 212.107 46.0543L232.047 26.0213V27.5933H233.609L213.67 47.6262C214.063 47.9256 214.362 48.3186 214.746 48.6087C215.046 48.8052 215.139 48.9081 215.242 49.0017L215.336 49.1046L236.641 27.5933H240.056L217.188 50.48C217.881 50.9666 218.564 51.3596 219.247 51.7526L243.088 27.5933H246.513L221.586 52.838C222.372 53.2309 223.251 53.521 224.037 53.7175L249.928 27.4997H253.249L226.676 54.4099C228.529 54.8029 230.381 54.9994 232.44 54.9994C246.41 55.0929 257.947 44.5852 259.603 31.0366Z" fill="#EA272A"/>
<path d="M167.447 6.87725C167.447 4.8094 167.747 4.51934 173.024 4.51934C182.502 4.51934 186.704 10.0211 186.704 15.813C186.704 20.8189 184.748 23.3733 182.399 24.9453C179.957 26.5172 176.636 26.8073 173.604 26.8073C169.206 26.8073 167.934 26.7137 167.644 26.4143C167.354 26.1242 167.354 25.3383 167.354 23.9628V6.87725H167.447ZM160.411 39.8694C160.411 47.5326 160.214 48.5151 155.237 49.0017L153.085 49.1981C152.598 49.6941 152.692 50.7701 153.281 51.0695C157.286 50.9666 160.411 50.873 164.032 50.873C167.447 50.873 170.385 50.9666 174.194 51.0695C174.68 50.873 174.877 49.5911 174.39 49.1981L172.631 49.0017C167.644 48.4122 167.447 47.5326 167.447 39.8694V30.6436C167.447 29.0716 167.644 29.0716 171.452 29.0716C174.877 29.0716 176.243 29.7547 177.515 31.4295C180.154 34.7606 183.672 39.7758 185.918 42.5267C191.981 49.8906 200.29 51.7526 207.513 51.7526C209.179 51.7526 210.545 51.659 211.331 51.3596C211.724 51.0695 211.621 50.48 211.228 50.3771C208.889 50.1806 207.42 50.087 205.661 49.3011C198.718 46.2507 192.86 44.1922 184.261 28.8751C183.868 28.2857 183.382 27.5933 183.868 27.1067C188.163 25.6283 194.619 21.8014 194.619 14.8305C194.619 9.72173 191.588 6.38134 187.48 4.51934C183.578 2.64797 178.488 2.35791 173.117 2.35791C164.715 2.35791 158.755 2.5544 153.964 2.94739C153.281 3.23745 153.281 4.41641 153.861 4.8094L156.603 5.10881C160.121 5.5018 160.411 6.68076 160.411 13.6516V39.8694Z" fill="white"/>
</svg>
